<?xml version="1.0" encoding="UTF-8" standalone="no"?>
<svg xmlns="http://www.w3.org/2000/svg" viewBox="0 0 100 100" width="100" height="100">
  <!-- Background circle -->
  <circle cx="50" cy="50" r="50" fill="#6366f1"/>
  
  <!-- User icons -->
  <circle cx="35" cy="40" r="12" fill="white" opacity="0.9"/>
  <path d="M35,55 C27,55 20,59 20,65 L20,70 L50,70 L50,65 C50,59 43,55 35,55 Z" fill="white" opacity="0.9"/>
  
  <circle cx="65" cy="40" r="10" fill="white" opacity="0.8"/>
  <path d="M65,53 C58,53 52,57 52,62 L52,66 L78,66 L78,62 C78,57 72,53 65,53 Z" fill="white" opacity="0.8"/>
  
  <circle cx="50" cy="28" r="11" fill="white"/>
  <path d="M50,42 C42,42 35,46 35,52 L35,57 L65,57 L65,52 C65,46 58,42 50,42 Z" fill="white"/>
</svg>
